# xmcd CD database file
#
# Track frame offsets:
#	182
#	13145
#	20030
#	26065
#	35112
#	46715
#	59430
#	71547
#	75877
#	88535
#	97330
#	110327
#	129150
#	137102
#	149837
#	159582
#
# Disc length: 2260 seconds
#
# Revision: 0
# Processed by: cddbd v1.5.1PL0 Copyright (c) Steve Scherf et al.
# Submitted via: CDex 1.60beta1
#
DISCID=dd08d210
DTITLE=Classic in Jazz - D'Orual jazz trio
DYEAR=1993
DGENRE=Jazz
TTITLE0=Reve d'amour-Liszt
TTITLE1=La Marche turque-Mozart
TTITLE2=La lettre a Elise-Beethoven
TTITLE3=Carmen-Bizet
TTITLE4=Symphonie No.40-Mozart
TTITLE5=Adagio-Albinoni
TTITLE6=Cantate 147 (Jesus que ma joie demeure)-Bach
TTITLE7=Noces de Figaro (Mon coeur soupire)-Mozart
TTITLE8=Le menuet duBourgeois gentilhomme-Lully
TTITLE9=Tristesse-Chopin
TTITLE10=Sur un marche persan-Ketelbey
TTITLE11=Ave Maria-Schubert
TTITLE12=Le tambourin-Rameau
TTITLE13=Sonate-Mozart
TTITLE14=Le petit negre-Debussy
TTITLE15=La badinerie-Bach
EXTD=YEAR: 1993
EXTT0=
EXTT1=
EXTT2=
EXTT3=
EXTT4=
EXTT5=
EXTT6=
EXTT7=
EXTT8=
EXTT9=
EXTT10=
EXTT11=
EXTT12=
EXTT13=
EXTT14=
EXTT15=
PLAYORDER=
